<svg xmlns="http://www.w3.org/2000/svg" xmlns:xlink="http://www.w3.org/1999/xlink" width="500" zoomAndPan="magnify" viewBox="0 0 375 374.999991" height="500" preserveAspectRatio="xMidYMid meet" version="1.0"><defs><g/><clipPath id="eec7ebc291"><path d="M 58 177.488281 L 252.988281 177.488281 L 252.988281 214.988281 L 58 214.988281 Z M 58 177.488281 " clip-rule="nonzero"/></clipPath></defs><g clip-path="url(#eec7ebc291)"><path fill="#800303" d="M 252.464844 200.925781 C 252.363281 200.839844 252.257812 200.765625 252.140625 200.703125 C 251.660156 200.421875 251.140625 200.292969 250.585938 200.324219 C 250.03125 200.355469 249.53125 200.539062 249.085938 200.878906 C 247.992188 201.652344 246.980469 202.523438 246.054688 203.496094 C 244.554688 205.152344 242.734375 206.289062 240.589844 206.902344 C 240.191406 207.050781 239.777344 207.117188 239.351562 207.109375 C 238.925781 207.101562 238.515625 207.011719 238.121094 206.847656 C 237.726562 206.683594 237.375 206.453125 237.066406 206.15625 C 236.757812 205.859375 236.515625 205.515625 236.335938 205.128906 C 235.972656 204.464844 235.753906 203.71875 235.429688 203.027344 C 235.289062 202.78125 235.195312 202.515625 235.148438 202.238281 C 235.101562 201.957031 235.105469 201.675781 235.160156 201.394531 C 235.214844 201.117188 235.316406 200.855469 235.46875 200.617188 C 235.617188 200.375 235.804688 200.167969 236.03125 199.996094 C 238.582031 197.511719 240.914062 194.832031 242.039062 191.359375 C 242.449219 190.066406 242.789062 188.714844 242.039062 187.445312 C 241.820312 187.113281 241.558594 186.816406 241.253906 186.554688 C 240.949219 186.296875 240.613281 186.089844 240.25 185.929688 C 239.882812 185.773438 239.503906 185.671875 239.105469 185.625 C 238.710938 185.578125 238.316406 185.589844 237.925781 185.664062 C 233.269531 186.09375 229.535156 188.195312 227.195312 192.378906 C 226.5625 193.457031 226.128906 194.613281 225.890625 195.847656 C 225.65625 197.078125 225.632812 198.3125 225.824219 199.554688 C 226.136719 201.472656 226.671875 203.324219 227.117188 205.308594 C 226.003906 205.980469 224.910156 205.597656 224.261719 204.148438 C 222.902344 200.769531 221.746094 197.316406 220.796875 193.796875 C 220.394531 191.976562 219.464844 190.492188 218.007812 189.347656 C 215.503906 187.648438 212.960938 188.089844 211.238281 190.585938 C 210.238281 192.230469 209.628906 194.011719 209.410156 195.925781 C 208.753906 199.496094 208.238281 203.085938 207.582031 206.644531 C 207.40625 207.816406 206.902344 208.828125 206.078125 209.675781 C 205.835938 209.183594 205.714844 208.667969 205.714844 208.121094 C 206.039062 205.605469 206.46875 203.113281 206.800781 200.597656 C 207.277344 196.972656 207.753906 193.347656 208.144531 189.71875 C 208.199219 189.523438 208.214844 189.328125 208.1875 189.125 C 208.160156 188.921875 208.09375 188.734375 207.988281 188.5625 C 207.882812 188.386719 207.75 188.242188 207.582031 188.125 C 207.417969 188.007812 207.234375 187.929688 207.039062 187.886719 C 205.320312 187.191406 203.542969 186.957031 201.707031 187.1875 C 201.355469 187.214844 201.019531 187.296875 200.695312 187.429688 C 200.371094 187.5625 200.078125 187.746094 199.808594 187.972656 C 199.539062 188.199219 199.3125 188.460938 199.128906 188.761719 C 198.941406 189.058594 198.804688 189.378906 198.714844 189.71875 C 198.546875 190.488281 198.355469 191.253906 198.171875 192.023438 C 197.085938 196.675781 195.183594 200.957031 192.460938 204.867188 C 191.851562 205.742188 191.128906 206.546875 190.460938 207.382812 C 190.28125 207.152344 190.253906 207.027344 190.269531 206.902344 C 190.558594 204.109375 190.851562 201.320312 191.128906 198.527344 C 191.347656 196.3125 191.585938 194.105469 191.699219 191.890625 C 191.738281 191.269531 191.597656 190.695312 191.277344 190.164062 C 190.957031 189.636719 190.511719 189.246094 189.949219 189 C 189.289062 188.664062 188.597656 188.429688 187.871094 188.300781 C 185.910156 188.011719 183.53125 188.453125 182.367188 190.804688 C 181.582031 192.253906 180.628906 193.585938 179.511719 194.796875 C 179.179688 195.210938 178.777344 195.53125 178.296875 195.753906 C 177.820312 195.976562 177.316406 196.085938 176.789062 196.070312 C 177.007812 194.84375 177.199219 193.671875 177.40625 192.511719 C 177.984375 189.742188 178.109375 186.949219 177.777344 184.136719 C 177.664062 183.160156 177.390625 182.230469 176.953125 181.347656 C 176.515625 180.464844 175.945312 179.683594 175.238281 179.003906 C 175.097656 178.84375 174.9375 178.703125 174.761719 178.585938 C 174.585938 178.464844 174.398438 178.371094 174.199219 178.300781 C 174 178.226562 173.792969 178.183594 173.582031 178.164062 C 173.371094 178.148438 173.160156 178.15625 172.953125 178.191406 C 172.742188 178.226562 172.542969 178.289062 172.347656 178.378906 C 172.15625 178.464844 171.976562 178.578125 171.8125 178.710938 C 171.648438 178.84375 171.5 178.996094 171.375 179.167969 C 171.25 179.339844 171.144531 179.527344 171.066406 179.722656 C 170.546875 180.777344 170.117188 181.863281 169.773438 182.984375 C 169.078125 185.292969 168.996094 187.621094 169.523438 189.96875 C 170.183594 192.804688 171.410156 195.359375 173.199219 197.644531 C 173.382812 197.863281 173.464844 198.117188 173.445312 198.402344 C 172.675781 201.023438 171.578125 203.492188 170.152344 205.816406 C 169.808594 206.363281 169.449219 206.394531 169.199219 205.816406 C 168.765625 204.832031 168.421875 203.816406 168.164062 202.765625 C 167.296875 198.929688 166.488281 195.027344 165.675781 191.148438 C 165.1875 188.171875 164.417969 185.273438 163.363281 182.449219 C 161.859375 178.898438 158.804688 178.09375 155.421875 179.273438 C 153.792969 179.980469 152.492188 181.085938 151.519531 182.582031 C 150.785156 183.542969 150.089844 184.503906 149.320312 185.605469 C 149.226562 185.464844 149.140625 185.316406 149.0625 185.164062 C 148.484375 183.257812 147.589844 181.519531 146.378906 179.945312 C 145.992188 179.371094 145.5 178.917969 144.894531 178.582031 C 144.292969 178.25 143.648438 178.074219 142.960938 178.054688 C 142.078125 177.796875 141.175781 177.667969 140.253906 177.660156 C 132.925781 177.546875 125.582031 177.414062 118.25 177.539062 C 116.992188 177.550781 115.742188 177.695312 114.511719 177.964844 C 113.277344 178.230469 112.082031 178.621094 110.929688 179.132812 C 109.773438 179.644531 108.679688 180.265625 107.652344 180.996094 C 106.621094 181.730469 105.671875 182.558594 104.808594 183.484375 C 101.105469 187.324219 96.648438 189.394531 91.324219 189.144531 C 82.480469 188.734375 73.585938 190.179688 64.769531 188.320312 C 63.390625 188.042969 61.789062 189 60.277344 189.117188 C 58.761719 189.230469 58.371094 189.863281 58.371094 191.238281 C 58.417969 194.449219 58.371094 197.664062 58.417969 200.828125 C 58.417969 201.414062 58.65625 202.449219 58.945312 202.507812 C 61.269531 203.015625 63.617188 203.371094 65.988281 203.574219 C 67.09375 203.648438 68.246094 202.96875 69.378906 202.960938 C 76.796875 202.902344 84.214844 202.960938 91.628906 202.960938 C 92.753906 202.910156 93.867188 202.980469 94.972656 203.164062 C 96.082031 203.351562 97.15625 203.652344 98.203125 204.066406 C 99.25 204.476562 100.238281 204.996094 101.179688 205.617188 C 102.117188 206.238281 102.980469 206.953125 103.769531 207.757812 C 108.835938 212.984375 114.890625 214.902344 121.957031 214.683594 C 126.136719 214.578125 129.191406 213.003906 131.011719 209.214844 C 132.992188 205.097656 134.820312 200.933594 136.800781 196.800781 C 137.816406 194.640625 138.882812 192.511719 140.179688 189.855469 C 140.863281 191.09375 141.4375 192.042969 141.914062 192.945312 C 142.4375 194.765625 142.960938 196.597656 143.464844 198.429688 C 144.617188 202.59375 145.683594 206.785156 146.882812 210.902344 C 147.207031 212.28125 147.957031 213.363281 149.128906 214.144531 C 149.417969 214.335938 149.71875 214.492188 150.039062 214.617188 C 150.359375 214.742188 150.6875 214.832031 151.027344 214.890625 C 151.367188 214.949219 151.707031 214.96875 152.050781 214.953125 C 152.394531 214.941406 152.730469 214.890625 153.0625 214.804688 C 153.394531 214.722656 153.71875 214.605469 154.023438 214.453125 C 154.332031 214.300781 154.625 214.117188 154.894531 213.90625 C 155.164062 213.695312 155.414062 213.457031 155.632812 213.191406 C 155.855469 212.929688 156.050781 212.644531 156.214844 212.339844 C 157.414062 210.25 158.28125 207.96875 159.296875 205.78125 C 159.382812 205.609375 159.476562 205.445312 159.582031 205.289062 C 160.394531 207.476562 161.117188 209.597656 161.964844 211.660156 C 162.167969 212.226562 162.480469 212.726562 162.902344 213.15625 C 163.324219 213.585938 163.8125 213.910156 164.375 214.125 C 164.820312 214.3125 165.285156 214.417969 165.769531 214.445312 C 166.25 214.472656 166.726562 214.421875 167.191406 214.289062 C 167.65625 214.152344 168.085938 213.949219 168.484375 213.667969 C 168.878906 213.390625 169.222656 213.050781 169.503906 212.65625 C 171.464844 210.375 172.417969 207.554688 173.542969 204.839844 C 174.378906 202.796875 175.152344 200.714844 175.988281 198.671875 C 176.113281 198.382812 176.324219 198.203125 176.628906 198.125 C 178.152344 197.929688 179.421875 197.25 180.4375 196.089844 C 180.976562 195.542969 181.511719 194.96875 182.140625 194.304688 C 182.15625 194.5625 182.15625 194.816406 182.140625 195.074219 C 181.96875 196.886719 181.769531 198.710938 181.617188 200.53125 C 181.464844 202.355469 181.320312 204.273438 181.28125 206.152344 C 181.253906 206.710938 181.304688 207.261719 181.425781 207.804688 C 181.550781 208.351562 181.746094 208.867188 182.011719 209.359375 C 182.277344 209.847656 182.601562 210.292969 182.992188 210.691406 C 183.378906 211.089844 183.8125 211.429688 184.292969 211.707031 C 185.644531 212.550781 186.996094 213.398438 188.691406 213.003906 C 189.367188 212.800781 189.972656 212.472656 190.515625 212.019531 C 191.058594 211.566406 191.492188 211.023438 191.8125 210.394531 C 193.585938 207.515625 195.242188 204.496094 196.925781 201.53125 C 197.117188 201.203125 197.242188 200.859375 197.402344 200.523438 C 197.5625 200.1875 197.746094 199.898438 197.917969 199.5625 C 198.019531 199.699219 198.054688 199.847656 198.03125 200.015625 C 197.484375 203.277344 197.644531 206.503906 198.515625 209.695312 C 198.566406 210.0625 198.703125 210.398438 198.917969 210.703125 C 199.136719 211.003906 199.410156 211.238281 199.746094 211.402344 C 201.347656 211.972656 202.996094 212.234375 204.695312 212.1875 C 205.203125 212.242188 205.691406 212.171875 206.164062 211.976562 C 206.636719 211.785156 207.035156 211.488281 207.363281 211.09375 C 207.851562 210.464844 208.207031 209.769531 208.4375 209.003906 C 209.066406 206.441406 209.53125 203.84375 210.132812 201.269531 C 210.367188 200.382812 210.699219 199.535156 211.132812 198.730469 C 211.410156 198.171875 211.941406 198.210938 212.246094 198.730469 C 212.554688 199.277344 212.808594 199.847656 213.007812 200.445312 C 214.027344 203.238281 214.914062 206.085938 216.074219 208.8125 C 217.027344 211.125 219.109375 212.160156 221.0625 211.488281 C 222.472656 210.996094 223.8125 210.355469 225.082031 209.570312 C 226.265625 208.769531 227.410156 207.90625 228.507812 206.988281 C 229.351562 207.765625 230.242188 208.484375 231.175781 209.148438 C 232.367188 209.847656 233.636719 210.335938 234.988281 210.621094 C 236.339844 210.902344 237.699219 210.960938 239.066406 210.796875 C 240.480469 210.667969 241.835938 210.316406 243.132812 209.742188 C 245.429688 208.570312 247.359375 206.949219 248.914062 204.878906 C 249.617188 204.035156 250.292969 203.152344 251.054688 202.363281 C 251.535156 201.925781 252.054688 201.535156 252.605469 201.195312 C 252.570312 201.097656 252.523438 201.007812 252.464844 200.925781 Z M 156.871094 206.488281 C 156.519531 207.515625 155.917969 207.574219 155.234375 206.71875 C 154.273438 205.378906 153.636719 203.894531 153.328125 202.269531 C 152.738281 199.996094 152.222656 197.691406 151.746094 195.398438 C 151.394531 193.691406 151.128906 191.964844 150.851562 190.238281 C 150.492188 187.9375 151.699219 186.304688 153.242188 184.867188 C 153.335938 184.769531 153.804688 184.867188 153.863281 185 C 154.355469 186.015625 154.773438 187.0625 155.117188 188.136719 C 155.945312 191.082031 156.6875 194.046875 157.449219 197.011719 C 157.773438 198.238281 158.070312 199.46875 158.402344 200.703125 C 158.433594 200.855469 158.457031 201.011719 158.46875 201.164062 L 158.574219 201.214844 C 157.964844 202.96875 157.480469 204.753906 156.871094 206.488281 Z M 174.238281 191.292969 C 174.238281 192.472656 174.085938 193.652344 174 194.832031 C 173.433594 194.542969 172.949219 194.144531 172.554688 193.640625 C 172.15625 193.140625 171.878906 192.578125 171.722656 191.957031 C 171.347656 190.375 171.089844 188.777344 170.953125 187.160156 C 170.929688 186.304688 171.082031 185.484375 171.410156 184.695312 C 171.617188 184.214844 171.972656 183.894531 172.464844 183.734375 C 173 183.609375 173.292969 184.167969 173.417969 184.695312 C 174.0625 186.847656 174.335938 189.046875 174.238281 191.292969 Z M 237.554688 188.664062 C 237.679688 188.472656 237.835938 188.304688 238.015625 188.160156 C 238.199219 188.019531 238.402344 187.914062 238.621094 187.839844 C 238.839844 187.769531 239.0625 187.734375 239.292969 187.738281 C 239.523438 187.746094 239.746094 187.789062 239.960938 187.871094 C 240.105469 187.90625 240.230469 187.964844 240.347656 188.050781 C 240.464844 188.136719 240.5625 188.246094 240.636719 188.371094 C 240.710938 188.496094 240.757812 188.628906 240.78125 188.773438 C 240.804688 188.917969 240.796875 189.0625 240.761719 189.203125 C 240.289062 192.128906 239.054688 194.6875 237.070312 196.878906 C 236.390625 197.683594 235.707031 198.480469 234.917969 199.410156 C 234.6875 195.378906 234.984375 191.734375 237.554688 188.664062 Z M 186.367188 186.527344 C 186.800781 186.570312 187.234375 186.554688 187.664062 186.472656 C 188.09375 186.394531 188.503906 186.257812 188.894531 186.0625 C 189.285156 185.863281 189.640625 185.617188 189.960938 185.320312 C 190.285156 185.023438 190.558594 184.6875 190.785156 184.308594 C 191.15625 183.78125 191.371094 183.191406 191.425781 182.542969 C 191.480469 181.898438 191.371094 181.28125 191.097656 180.695312 C 190.890625 180.253906 189.539062 178.773438 189.035156 179.054688 L 186.832031 178.535156 C 186.167969 178.640625 185.519531 178.699219 184.929688 178.859375 C 182.378906 179.523438 181.816406 181.835938 182.617188 183.90625 C 182.761719 184.292969 182.957031 184.644531 183.207031 184.96875 C 183.457031 185.292969 183.75 185.570312 184.085938 185.804688 C 184.421875 186.039062 184.785156 186.21875 185.171875 186.339844 C 185.5625 186.464844 185.960938 186.523438 186.367188 186.527344 Z M 186.367188 186.527344 " fill-opacity="1" fill-rule="nonzero"/></g><g fill="#800303" fill-opacity="1"><g transform="translate(192.548247, 220.295026)"><g><path d="M 10.238281 0 L 10.207031 -11.039062 L 8.863281 -11.039062 L 8.863281 -5.519531 C 8.863281 -4.222656 8.878906 -2.640625 8.910156 -1.34375 L 3.710938 -11.039062 L 1.601562 -11.039062 L 1.601562 0 L 2.976562 0 L 2.976562 -5.519531 C 2.976562 -6.816406 2.960938 -8.398438 2.925781 -9.695312 L 8.125 0 Z M 10.238281 0 "/></g></g></g><g fill="#800303" fill-opacity="1"><g transform="translate(206.817491, 220.295026)"><g><path d="M 7.292969 -3.902344 L 8.605469 0 L 10.09375 0 L 6.285156 -11.039062 L 4.429688 -11.039062 L 0.464844 0 L 1.9375 0 L 3.230469 -3.902344 Z M 3.617188 -5.023438 L 5.328125 -9.949219 L 6.925781 -5.023438 Z M 3.617188 -5.023438 "/></g></g></g><g fill="#800303" fill-opacity="1"><g transform="translate(219.823032, 220.295026)"><g><path d="M 10.238281 0 L 10.207031 -11.039062 L 8.863281 -11.039062 L 8.863281 -5.519531 C 8.863281 -4.222656 8.878906 -2.640625 8.910156 -1.34375 L 3.710938 -11.039062 L 1.601562 -11.039062 L 1.601562 0 L 2.976562 0 L 2.976562 -5.519531 C 2.976562 -6.816406 2.960938 -8.398438 2.925781 -9.695312 L 8.125 0 Z M 10.238281 0 "/></g></g></g><g fill="#800303" fill-opacity="1"><g transform="translate(234.092277, 220.295026)"><g><path d="M 5.96875 -11.261719 C 2.832031 -11.261719 0.75 -8.832031 0.75 -5.472656 C 0.75 -2.238281 2.542969 0.222656 5.757812 0.222656 C 8.671875 0.222656 10.160156 -1.519531 10.367188 -3.519531 L 10.382812 -3.679688 L 9.007812 -3.679688 L 8.972656 -3.519531 C 8.65625 -1.9375 7.679688 -0.863281 5.839844 -0.863281 C 3.664062 -0.863281 2.289062 -2.816406 2.289062 -5.535156 C 2.289062 -8.207031 3.679688 -10.175781 5.933594 -10.175781 C 7.773438 -10.175781 8.75 -9.101562 9.070312 -7.519531 L 9.101562 -7.359375 L 10.476562 -7.359375 L 10.460938 -7.519531 C 10.238281 -9.679688 8.765625 -11.261719 5.96875 -11.261719 Z M 5.96875 -11.261719 "/></g></g></g><g fill="#800303" fill-opacity="1"><g transform="translate(248.057587, 220.295026)"><g><path d="M 8.941406 -1.121094 L 2.976562 -1.121094 L 2.976562 -4.960938 L 8.300781 -4.960938 L 8.300781 -6.078125 L 2.976562 -6.078125 L 2.976562 -9.917969 L 8.78125 -9.917969 L 8.78125 -11.039062 L 1.601562 -11.039062 L 1.601562 0 L 8.941406 0 Z M 8.941406 -1.121094 "/></g></g></g></svg>